<?xml version="1.0" encoding="utf-8"?>
<!-- Generator: Adobe Illustrator 16.0.0, SVG Export Plug-In . SVG Version: 6.00 Build 0)  -->
<!DOCTYPE svg PUBLIC "-//W3C//DTD SVG 1.1//EN" "http://www.w3.org/Graphics/SVG/1.1/DTD/svg11.dtd">
<svg version="1.1" xmlns="http://www.w3.org/2000/svg" xmlns:xlink="http://www.w3.org/1999/xlink" x="0px" y="0px"
	 width="595.28px" height="841.89px" viewBox="0 0 595.28 841.89" enable-background="new 0 0 595.28 841.89" xml:space="preserve">
<g id="black_x2F_white">
	<rect x="1.06" fill="#4456A6" stroke="#4456A6" stroke-width="4" stroke-miterlimit="10" width="593.614" height="843.89"/>
	<path fill="#FFFFFF" d="M542.564,454.823c-1.708-11.17-11.256-27.967-13.986-33.424c-17.739-36.836-35.656-65.015-66.849-94.819
		c-3.89-3.715-10.893-9.159-16.729-13.135c0.722-2.032,3.393-2.583,3.987-4.636c6.875,4.57,14.142,9.874,22.031,16.011
		c26.111,20.303,38.394,55.002,47.755,62.794c5.348,4.448,17.65-7.485,19.969-20.569c-9.616-40.307-44.238-78.363-83.075-97.6
		c-2.136-35.938-21.333-71.334-54-102c4.157,24.831,4.048,63.093-8.667,83.333c-36.677-7.684-61.114-3.95-92.666,27.513
		c-19.29-30.548-57.888-24.705-87.266-12.374c-4.194,1.657-4.396,1.585-8.735,3.528c-12.729-4.354-24.389-50.192-32.667-90
		c-21.659,47.435-40.894,88.857-30,122.666c-5.971,4.074-8.216,8.191-13.481,12.438c-15.815,12.067-57.505,53.32-64.16,94.229
		c-1.513,9.302,14.994,19.157,30.758,7.483c-0.861,1.536-1.678,3.026-2.432,4.453c-7.268,13.752-36.835,68.897-25.239,87.314
		c3.081,4.89,15.327,6.042,23.3,3.41c-7.674,19.844-14.798,33.153-8.975,36.839c33.425,21.145,41.005-10.679,44.68-17.738
		c11.411-21.923,17.464-43.88,22.356-63.851c11.583,26.005,29.899,73.599,43.521,91.397c6.313,8.246,14.776,28.034,25.196,46.725
		c3.523,12.154,10.15,22.55,24.937,33.509L300,676.445l55.953-36.762c14.784-10.959,23.123-22.718,26.647-34.872
		c10.42-18.69,18.881-38.479,25.196-46.725c13.366-17.462,31.171-63.603,42.854-89.894c5.371,18.69,10.14,35.762,17.219,43.93
		c7.437,8.581,17.904,2.558,29.16-5.629c8.237-5.991-2.463-34.408-4.604-42.974c-9.55-40.929-28.306-79.299-58.323-109.313
		c-1.892-1.89-3.83-3.746-5.796-5.575c0.624-0.791,1.199-1.597,1.799-2.396c26.592,20.732,45.273,46.255,64.366,88.805
		c4.771,10.635,11.184,24.485,19.441,40.246C519.541,486.031,544.266,465.992,542.564,454.823z M282.298,304.35
		c0.119,0.149,0.23,0.323,0.348,0.466c-0.353-0.002-0.705-0.008-1.057-0.006L282.298,304.35z M101.389,478.813
		c4.86-24.642,11.739-41.479,16.201-47.866c2.271-3.249,4.481-6.334,6.681-9.39C115.722,439.303,108.153,458.516,101.389,478.813z
		 M100.935,405.908c7.95-14.794,23.729-38.37,27.229-42.151c15.762-17.041,21.449-24.303,33.077-32.919
		c0.523,0.633,1.097,1.255,1.644,1.882C136.16,356,114.559,384.11,100.935,405.908z"/>
	<path d="M538.816,455.359c-1.681-10.995-11.079-27.528-13.767-32.901c-17.461-36.258-35.098-63.995-65.802-93.333
		c-3.828-3.657-8.758-7.55-14.502-11.463c0.709-2.001,1.374-4.009,1.96-6.029c6.767,4.499,13.919,9.72,21.686,15.759
		c25.703,19.986,37.793,54.142,47.007,61.812c5.265,4.379,17.374-7.368,19.656-20.247c-9.466-39.676-45.87-77.402-84.1-96.338
		c-2.102-35.375-19.463-70.481-46.24-97.811c4.092,24.441,4.159,60.632-8.356,80.555c-36.102-7.563-64.92-4.741-95.978,26.23
		c-18.989-30.07-56.982-24.318-85.899-12.181c-4.127,1.631-8.36,3.452-12.631,5.364c-12.531-4.287-23.95-49.396-32.098-88.579
		c-21.32,46.692-32.837,85.508-22.115,118.786c-5.877,4.012-11.527,8.119-16.709,12.299c-15.568,11.88-56.604,52.486-63.155,92.754
		c-1.489,9.154,14.759,18.856,30.276,7.366c-0.848,1.511-1.652,2.979-2.394,4.383c-7.154,13.536-36.258,67.818-24.843,85.947
		c3.032,4.813,15.086,5.947,22.935,3.356c-7.554,19.533-14.566,32.635-8.834,36.263c32.901,20.813,40.362-10.513,43.98-17.461
		c11.232-21.579,17.191-43.192,22.006-62.851c11.402,25.597,31.4,72.446,44.808,89.966c6.214,8.116,14.545,27.596,24.802,45.992
		c3.468,11.964,9.991,22.197,24.546,32.985L300,670.445l53.16-33.12c14.553-10.788,22.76-22.363,26.229-34.327
		c10.257-18.396,18.586-37.876,24.802-45.992c13.156-17.188,32.651-62.606,44.151-88.486c5.287,18.398,9.981,35.202,16.949,43.242
		c7.321,8.446,17.625,2.518,28.704-5.54c8.108-5.897-2.424-33.87-4.532-42.302c-9.399-40.287-27.862-78.057-57.409-107.6
		c-1.861-1.86-3.77-3.688-5.705-5.488c0.614-0.778,1.181-1.571,1.771-2.358c26.175,20.407,44.564,45.53,63.358,87.412
		c4.697,10.47,11.008,24.103,19.137,39.617C516.154,486.078,540.492,466.354,538.816,455.359z M282.627,307.242
		c0.116,0.147,0.226,0.318,0.342,0.458c-0.346-0.002-0.694-0.008-1.041-0.006L282.627,307.242z M104.551,478.975
		c4.784-24.257,11.555-40.83,15.948-47.117c2.235-3.198,4.41-6.234,6.576-9.242C118.659,440.082,111.209,458.994,104.551,478.975z
		 M104.104,407.211c7.825-14.563,23.358-37.77,26.802-41.491c15.515-16.774,21.113-23.923,32.559-32.403
		c0.515,0.622,1.08,1.233,1.619,1.852C138.777,358.083,117.514,385.753,104.104,407.211z M431.047,421.115
		c0.693,1.269,1.338,2.606,1.991,3.934c-1.377,24.264-8.101,87.244-40.933,124.482c-3.651,4.139-15.359,32.363-27.053,50.839
		c-5.622,6.968-16.838,15.879-37.411,15.466c0,0-21.524-3.958-29.181-4.08c-0.122-0.004-0.228-0.012-0.362-0.012
		c-0.138,0-0.244,0.008-0.366,0.012c-7.656,0.122-29.179,4.08-29.179,4.08c-18.617,0.373-29.572-6.889-35.659-13.439
		c-11.508-19.625-20.419-45.491-24.396-50.451c-42.5-53-42-135.599-42.001-136.816c1.7-3.399,3.557-6.592,5.705-9.456
		c20.313-27.084,30.235-42.416,46.665-53.047c3.395-2.197,7.444-3.887,11.661-5.252c17.606-0.58,65.601,3.418,56.721,84.876
		c-0.019,0.174-0.671,5.363,0.75,6.5c3.75,3,25.626,2.479,24.25-3.75c-3.931-17.777-9.044-86.359,34.701-87.211
		c6.551,2.315,12.456,4.245,16.615,5.845C391.768,364.376,416.274,394.257,431.047,421.115z"/>
	<path d="M343.493,470.085c-7.648-7.515-16.461-9.411-15.58-8.381c3.683,4.336,2.841,5.89,1.307,6.297
		c-7.869,2.102-17.886,7.855-27.887,7.995v-0.002c-0.181,0.004-0.362,0.008-0.543,0.012c-0.188-0.004-0.386-0.008-0.582-0.012
		v-0.008c-0.087,0.002-0.173,0.004-0.26,0.006c-0.087-0.002-0.173-0.004-0.252-0.006v0.008c-0.196,0.004-0.394,0.008-0.59,0.012
		c-0.181-0.004-0.354-0.008-0.543-0.012v0.002c-10.001-0.14-20.014-5.894-27.884-7.995c-1.533-0.407-2.373-1.961,1.31-6.297
		c0.877-1.03-7.936,0.866-15.586,8.381c-3.805,3.733-7.652,11.271-3.118,18.208c0.128,0.194,0.276,0.336,0.419,0.493
		c0.222,0.415,0.535,0.907,0.796,1.355c1.908,4.107,5.245,10.851,9.19,16.878c1.336,4.716,0.805,9.832-3.116,16.375
		c4.249,1.102,5.317-0.413,9.372-4.15l0.855-1.731c0.23-0.342,0.437-0.692,0.655-1.043c1.426,1.239,2.858,2.184,4.265,2.676
		c0,0,12.352-38.216-12.204-35.685c-8.25-14.149,15.023-5.366,35.045-4.243v0.116c0.181,0,0.362,0,0.543-0.002
		c0.196,0.004,0.394,0.002,0.59,0.002v0.002c0.087-0.002,0.165,0,0.252-0.002c0.087,0.002,0.173,0,0.26,0.002v-0.002
		c0.196,0,0.386,0.002,0.582-0.002c0.181,0.002,0.362,0.002,0.543,0.002v-0.116c20.025-1.123,43.301-9.906,35.047,4.243
		c-24.558-2.531-12.204,35.685-12.204,35.685c1.408-0.492,2.841-1.437,4.265-2.676c0.221,0.351,0.425,0.701,0.653,1.043l0.857,1.731
		c4.053,3.737,5.123,5.252,9.372,4.15c-3.919-6.543-4.454-11.659-3.116-16.375c3.95-6.027,7.286-12.771,9.19-16.878
		c0.26-0.448,0.574-0.94,0.795-1.355c0.149-0.157,0.291-0.299,0.425-0.493C351.149,481.356,347.302,473.818,343.493,470.085z"/>
	<g>
		<path fill="#FFFFFF" d="M166.158,381.842c0,0-2.115,2.94-5.286,7.354c-1.623,2.176-3.429,4.772-5.166,7.689
			c-1.771,2.894-3.777,5.897-5.563,9.035c-3.503,6.324-6.987,12.633-9.228,17.566c-1.178,2.434-2.162,4.46-2.848,5.878
			c-0.632,1.446-0.994,2.272-0.994,2.272s-0.785,1.623-2.16,4.459c-1.385,2.835-3.38,6.877-5.473,11.872
			c-2.237,4.934-4.598,10.786-7.031,17.097c-2.583,6.287-4.509,13.239-7.505,19.957c-5.783,13.398-13.333,25.787-17.503,35.819
			c-1.172,2.455-1.942,4.812-2.723,6.874c-0.822,2.045-1.379,3.891-1.749,5.433c-0.83,3.062-1.304,4.808-1.304,4.808
			s0.421-1.763,1.161-4.843c0.325-1.554,0.826-3.411,1.589-5.488c0.722-2.089,1.43-4.497,2.53-6.987
			c3.887-10.18,11.105-22.876,16.414-36.265c2.725-6.605,4.489-13.73,6.881-20.087c2.264-6.435,4.471-12.408,6.576-17.44
			c1.961-5.093,3.85-9.23,5.164-12.134c1.304-2.907,2.05-4.567,2.05-4.567s0.413-0.811,1.135-2.231
			c0.779-1.391,1.892-3.377,3.226-5.762c2.547-4.833,6.442-10.994,10.333-17.132c1.983-3.047,4.18-5.952,6.125-8.746
			c1.912-2.816,3.877-5.313,5.632-7.398C163.873,384.655,166.158,381.842,166.158,381.842z"/>
	</g>
	<g>
		<path fill="#FFFFFF" d="M191.338,316.375c0,0-3.356,3.297-8.388,8.244c-2.475,2.512-5.53,5.263-8.492,8.525
			c-2.953,3.268-6.104,6.754-9.255,10.239c-6.313,6.946-12.403,14.172-17.075,19.471c-4.741,5.228-7.902,8.713-7.902,8.713
			s-1.641,1.684-4.513,4.633c-2.848,3.021-7.058,6.985-11.199,12.563c-8.375,11.055-15.934,28.616-26.147,44.42
			c-9.507,16.158-17.101,33.491-20.187,47.257c-1.005,3.386-1.178,6.628-1.727,9.435c-0.567,2.813-0.622,5.317-0.683,7.375
			c-0.164,4.111-0.258,6.462-0.258,6.462s0.04-2.351,0.11-6.466c0.014-2.06,0.012-4.56,0.515-7.396
			c0.484-2.823,0.59-6.11,1.521-9.525c2.782-13.897,10.029-31.523,19.221-47.988c9.865-16.042,16.858-33.528,25.298-45.274
			c4.152-5.866,8.451-10.107,11.169-13.129c2.803-3.014,4.406-4.734,4.406-4.734s3.314-3.337,8.286-8.341
			c4.896-5.071,11.256-11.957,17.913-18.641c3.313-3.347,6.627-6.694,9.733-9.832c3.112-3.13,6.311-5.756,8.899-8.154
			C187.836,319.517,191.338,316.375,191.338,316.375z"/>
	</g>
	<g>
		<path fill="#FFFFFF" d="M135.915,318.529c0,0-1.938,1.375-4.841,3.438c-2.825,2.168-6.5,5.157-9.956,8.386
			c-6.948,6.435-12.963,13.695-12.963,13.695c0.002,0-3.313,3.34-7.88,8.738c-4.489,5.445-10.155,13.026-14.789,21.259
			c-4.696,8.189-8.195,17.05-9.82,23.964c-0.718,3.464-1.285,6.386-1.337,8.475c-0.175,2.071-0.273,3.256-0.273,3.256
			s0.045-1.188,0.125-3.266c-0.039-2.089,0.392-5.024,0.96-8.573c1.322-7.038,4.452-16.152,8.836-24.664
			c4.316-8.551,9.718-16.504,14.038-22.252c4.393-5.697,7.623-9.258,7.623-9.258c-0.002,0,6.789-6.834,14.372-12.681
			c3.779-2.938,7.745-5.61,10.762-7.521C133.857,319.727,135.915,318.529,135.915,318.529z"/>
	</g>
	<g>
		<path fill="#FFFFFF" d="M491.479,501.697c0,0-1.361-4-3.403-9.997c-1.019-2.996-2.211-6.492-3.486-10.237
			c-1.271-3.744-2.572-7.753-4.261-11.626c-3.183-7.806-6.361-15.609-8.746-21.464c-1.188-2.925-2.438-5.244-3.19-6.923
			c-0.791-1.66-1.243-2.608-1.243-2.608s-3.324-7.721-8.317-19.304c-2.848-5.659-6.169-12.259-9.729-19.331
			c-3.446-7.154-7.601-14.396-12.066-21.538c-9.084-14.166-21.158-26.175-31.14-33.9c-4.863-4.05-9.301-6.93-12.354-9.008
			c-3.054-2.083-4.796-3.271-4.796-3.271s1.773,1.145,4.878,3.147c3.108,2.002,7.605,4.762,12.594,8.702
			c10.21,7.499,22.686,19.276,32.242,33.381c4.674,7.052,9.111,14.378,12.719,21.404c3.738,6.979,7.228,13.493,10.218,19.078
			c5.331,11.551,8.884,19.25,8.884,19.25s0.409,0.981,1.121,2.697c0.673,1.729,1.813,4.131,2.856,7.133
			c2.097,5.994,4.891,13.986,7.684,21.979c1.491,3.958,2.597,8.047,3.679,11.863c1.086,3.811,2.097,7.369,2.967,10.418
			C490.321,497.637,491.479,501.697,491.479,501.697z"/>
	</g>
	<g>
		<path fill="#FFFFFF" d="M535.291,455.366c0,0-0.315-0.848-0.87-2.329c-0.613-1.455-1.184-3.657-2.521-6.018
			c-2.188-4.959-6.429-10.812-11.012-16.349c-4.568-5.515-9.435-11.089-12.559-15.488c-3.167-4.434-5.276-7.388-5.276-7.388
			s-0.983-1.537-2.711-4.224c-1.738-2.682-3.815-6.708-6.515-11.436c-5.272-9.407-11.783-22.42-20.207-34.097
			c-7.959-12.043-16.331-23.877-24.412-31.118c-3.997-3.618-7.73-6.227-10.583-7.569c-1.361-0.813-2.585-1.124-3.353-1.485
			c-0.782-0.315-1.203-0.484-1.203-0.484s0.425,0.155,1.219,0.449c0.775,0.338,2.007,0.611,3.396,1.387
			c2.916,1.269,6.739,3.774,10.879,7.304c8.356,7.046,17.157,18.743,25.467,30.54c8.855,11.561,15.713,24.318,21.308,33.643
			c2.813,4.606,5.005,8.559,6.787,11.132c1.771,2.583,2.781,4.061,2.781,4.061s1.821,3.033,4.784,7.618
			c2.899,4.633,7.243,10.22,11.555,16.107c4.281,5.847,8.239,12.049,10.144,17.175c1.199,2.451,1.648,4.706,2.171,6.195
			C535.027,454.503,535.291,455.366,535.291,455.366z"/>
	</g>
	<g>
		<path fill="#FFFFFF" d="M527.737,359.684c0,0-1.012-1.643-2.53-4.107c-1.491-2.479-3.541-5.74-5.713-8.917
			c-2.089-3.232-4.308-6.367-6.039-8.671c-1.691-2.323-2.816-3.874-2.816-3.874c-0.004,0-8.101-13.038-18.224-24.599
			c-1.256-1.452-2.511-2.905-3.746-4.336c-1.329-1.338-2.636-2.655-3.902-3.929c-2.558-2.525-4.84-5.018-7.117-6.812
			c-4.391-3.76-7.322-6.266-7.322-6.266s3.065,2.339,7.66,5.849c2.369,1.664,4.792,4.028,7.515,6.431
			c1.35,1.218,2.746,2.475,4.163,3.753c1.325,1.369,2.667,2.762,4.013,4.152c10.854,11.081,19.801,23.846,19.801,23.846
			s0.965,1.687,2.408,4.218c1.479,2.509,3.356,5.899,5.083,9.368c1.817,3.417,3.498,6.896,4.71,9.53
			C526.915,357.938,527.737,359.684,527.737,359.684z"/>
	</g>
	<g>
		<path fill="#FFFFFF" d="M404.046,264.121c0,0-0.881-0.224-2.203-0.563c-1.317-0.34-3.061-0.799-4.843-1.113
			c-3.521-0.783-7.078-1.177-7.078-1.177s-1.68-0.59-4.269-1.233c-2.569-0.733-6.063-1.459-9.6-1.932
			c-3.553-0.512-7.094-0.566-9.809-0.476c-2.698,0.27-4.501,0.45-4.501,0.45s1.767-0.392,4.415-0.979
			c2.667-0.413,6.365-0.797,10.013-0.702c3.658,0.049,7.333,0.367,10.052,0.805c2.738,0.346,4.536,0.747,4.536,0.745
			c0,0,3.479,1.259,6.779,2.874c1.676,0.729,3.293,1.598,4.497,2.24C403.243,263.696,404.046,264.121,404.046,264.121z"/>
	</g>
	<g>
		<path fill="#FFFFFF" d="M338.387,259.973c0,0-0.838,0.488-2.094,1.218c-1.227,0.779-2.958,1.579-4.48,2.758
			c-1.53,1.125-3.062,2.248-4.21,3.093c-1.059,0.948-1.767,1.581-1.767,1.581c0-0.002-1.633,0.938-3.95,2.554
			c-1.129,0.857-2.443,1.856-3.852,2.929c-1.365,1.129-2.715,2.455-4.131,3.726c-1.369,1.314-2.546,2.802-3.766,4.115
			c-1.117,1.376-1.979,2.782-2.828,3.948c-0.771,1.212-1.188,2.363-1.586,3.101c-0.365,0.759-0.574,1.194-0.574,1.194
			s0.157-0.455,0.437-1.249c0.314-0.779,0.603-1.962,1.235-3.258c0.708-1.257,1.448-2.829,2.439-4.369
			c1.074-1.464,2.125-3.132,3.372-4.631c4.847-6.183,11.26-10.878,11.256-10.88c0,0,0.861-0.479,2.156-1.194
			c1.354-0.592,3.159-1.381,4.961-2.172c1.771-0.824,3.718-1.251,5.079-1.739C337.466,260.262,338.387,259.973,338.387,259.973z"/>
	</g>
	<g>
		<path fill="#FFFFFF" d="M362.559,317.382c0,0-1.011-0.84-2.525-2.101c-0.807-0.559-1.747-1.21-2.754-1.908
			c-1.055-0.609-2.18-1.263-3.309-1.914c-4.576-2.494-9.51-4.053-9.51-4.055c0,0-2.298-1.156-5.917-2.535
			c-3.604-1.414-8.597-2.892-13.73-3.671c-5.131-0.824-10.387-0.83-14.263-0.301c-0.972,0.146-1.86,0.279-2.647,0.397
			c-0.775,0.202-1.451,0.378-2.011,0.521c-1.113,0.291-1.75,0.458-1.75,0.458s0.621-0.219,1.707-0.598
			c1.074-0.434,2.64-0.905,4.6-1.307c3.887-0.855,9.229-1.288,14.557-0.873c10.725,0.637,20.816,4.764,20.816,4.764
			c0,0.002,4.835,2.455,9.076,5.758c1.035,0.849,2.065,1.696,3.038,2.491c0.896,0.867,1.734,1.678,2.454,2.372
			C361.693,316.381,362.559,317.382,362.559,317.382z"/>
	</g>
	<g>
		<path fill="#FFFFFF" d="M385.724,296.231c0,0-1.565-0.547-3.914-1.365c-2.364-0.754-5.406-2.04-8.585-2.831
			c-3.198-0.653-6.401-1.308-8.801-1.8c-1.177-0.313-2.227-0.217-2.927-0.314c-0.709-0.048-1.114-0.075-1.114-0.075
			s-0.798-0.134-2.195-0.366c-1.4-0.173-3.387-0.712-5.811-0.838c-2.439-0.09-5.284-0.192-8.333-0.305
			c-3.053,0.244-6.311,0.506-9.564,0.766c-3.21,0.631-6.452,1.191-9.458,1.868c-2.963,0.866-5.729,1.673-8.097,2.363
			c-4.65,1.738-7.747,2.897-7.747,2.897s3.018-1.357,7.543-3.392c2.341-0.852,5.075-1.847,8.002-2.911
			c2.99-0.882,6.228-1.66,9.462-2.515c3.301-0.478,6.609-1.026,9.729-1.416c3.151-0.089,6.095-0.173,8.612-0.244
			c2.525-0.027,4.611,0.386,6.086,0.475c1.472,0.149,2.31,0.233,2.31,0.233s0.413,0.083,1.142,0.229
			c0.712,0.195,1.778,0.238,2.962,0.718c2.385,0.818,5.56,1.91,8.738,3.002c3.108,1.218,6.016,2.916,8.262,3.968
			C384.245,295.489,385.724,296.231,385.724,296.231z"/>
	</g>
	<g>
		<path fill="#FFFFFF" d="M200.402,342.562c0,0,5.66-5.341,11.319-10.684c5.689-5.333,11.899-10.176,11.897-10.178
			c0,0,0.813-0.551,2.284-1.448c1.458-0.914,3.535-2.225,6.141-3.617c5.158-2.851,12.352-6.194,19.969-8.18
			c7.593-2.075,15.485-2.671,21.33-2.232c2.935,0.02,5.317,0.505,7.005,0.714c1.682,0.238,2.644,0.374,2.644,0.374
			s-0.968-0.083-2.659-0.227c-1.694-0.116-4.116-0.47-7.017-0.328c-5.781-0.114-13.534,0.908-20.82,3.344
			c-7.324,2.347-14.126,5.982-18.989,9.029c-2.457,1.491-4.413,2.882-5.784,3.852c-1.381,0.95-2.144,1.532-2.146,1.53
			c0.002,0.004-6.549,4.035-12.765,8.691C206.607,337.882,200.402,342.562,200.402,342.562z"/>
	</g>
	<g>
		<path fill="#FFFFFF" d="M229.611,294.217l14.533-2.038c0.002-0.002,7.353,0.163,14.665,1.135c1.826,0.329,3.643,0.521,5.337,0.94
			c1.688,0.455,3.26,0.824,4.566,1.229c2.524,1.053,4.208,1.755,4.208,1.755s-1.754-0.5-4.389-1.251
			c-2.693-0.48-6.226-0.919-9.859-0.966c-7.225-0.106-14.458,0.58-14.458,0.582L229.611,294.217z"/>
	</g>
	<g>
		<path fill="#FFFFFF" d="M214.503,273.066c0,0,5.61-1.964,11.223-3.929c2.847-0.896,5.693-1.788,7.827-2.461
			c2.128-0.708,3.6-1.033,3.598-1.033c0,0,2.97-0.419,7.426-1.048c2.254-0.126,4.885-0.273,7.704-0.431
			c2.819-0.01,5.842,0.281,8.829,0.472c2.941,0.673,5.939,1.009,8.602,1.924c2.634,0.991,5.174,1.688,7.161,2.678
			c3.974,1.994,6.624,3.324,6.624,3.324s-2.738-1.135-6.844-2.837c-2.058-0.846-4.605-1.338-7.226-2.12
			c-2.646-0.7-5.618-0.814-8.482-1.264c-2.925,0.032-5.838-0.045-8.557,0.162c-2.71,0.35-5.242,0.677-7.412,0.956
			c-4.292,0.926-7.156,1.544-7.156,1.544s-1.464,0.106-3.642,0.496c-2.189,0.354-5.106,0.826-8.024,1.298
			C220.328,271.931,214.503,273.066,214.503,273.066z"/>
	</g>
	<path fill="#FFFFFF" d="M410.4,184.434c-0.634-1.461,29.712,35.252,32.733,63.956c0,0-0.634,6.153-5.036,9.065
		c-6.248,4.133-16.796,4.141-15.611-8.562C422.486,248.894,428.025,225.225,410.4,184.434z"/>
	<path fill="#FFFFFF" d="M167.836,201.22c0,0-16.069,41.119-18.469,65.465c-0.46,4.672-0.081,8.054,0.677,11.081
		c0,0,18.129,10.912,16.451-20.144C166.495,257.622,163.135,234.12,167.836,201.22z"/>
	<path d="M382.844,523.474l0.095-0.114l-0.11,0.035l-0.692-3.64l-27.154,12.854l-1.468,0.37c0,0,5.119,15.037-12.224,28.304
		c0,0-16.226,8.903-36.251,6.369c-2.88-0.621-5.496-0.669-7.617-0.476l0.004-0.012c-0.047,0.008-0.09,0.012-0.138,0.02
		c-1.161,0.11-2.136,0.268-2.927,0.44c-20.104,2.612-36.434-6.342-36.434-6.342c-17.342-13.267-12.222-28.304-12.222-28.304
		l-27.936-13.224l-0.692,3.64l-0.11-0.035l0.094,0.114l-2.043,10.721c2.439-1.578,5.458-2.459,8.638-2.907L237,551.828
		c5.484,8.124,9.179,11.964,11.614,14.297c3.137,3.625,5.387,4.625,14.25,8.223c8.637,2.402,15.564,3.683,24.444,4.013
		c0.468,0.021,1.133,0.048,1.889,0.079c2.927,0.295,6.869,0.358,10.756,0.311c3.887,0.048,7.833-0.016,10.761-0.311
		c0.755-0.031,1.416-0.059,1.888-0.079c8.876-0.33,16.493-0.751,24.44-4.013c3.709-1.098,8.959-3.598,14.25-8.223
		c2.432-2.333,6.13-6.173,11.614-14.297l13.345-20.541c3.18,0.448,6.193,1.329,8.632,2.907L382.844,523.474z"/>
	<path d="M404.982,469.585c-3.316-3.521-7.243-6.094-11.5-8.075c4.989-7.129,10.332-18.029,10.815-38.743
		c-0.909-7.689,1.188-13.058-5.862-23.803c-1.601-2.186-2.463-3.529-3.564-4.563c1.873-0.343,3.616-0.858,5.009-1.739
		c0,0,1.99-11.644,1.998-11.667c-0.534,2.215-6.92,3.586-8.836,4.001c-10.709,2.331-20.033-3.539-29.987-5.948
		c-7.869-1.902-15.906-2.629-23.735-0.162c-5.032,1.586-9.423,4.522-12.901,8.498c0.826-0.947,3.612-1.395,4.714-1.738
		c3.879-1.212,7.908-2.143,11.964-2.455c10.383-0.811,19.251,5.248,28.717,8.429c2.054,0.69,4.736,1.417,7.641,2.021
		c3.328,1.19,6.35,2.89,8.588,7.257c2.054,3.787,3.333,7.843,4.049,11.721c-3.683-3.25-8.396-5.41-13.684-7.741
		c-22.395-9.889-37.337-4.645-40.382,13.182c-0.031-0.444-0.134-0.893-0.157-1.333c-0.429-8.335,2.404-14.325,5.595-20.277
		c1.313-2.53,18.837-3.031,4.028-4.532c-0.881-0.089-7.884,0.499-10.158,4.028c-3.962,6.002-2.313,12.737-2.684,21.823
		c-0.396,9.049,2.346,20.144,5.367,26.521c0.409,0.543,1.038,1.183,1.754,1.857c6,10.288,22.032,17.433,28.643,18.678
		c2.549,0.48,5.161,0.958,7.794,1.454c3.021,0.931,5.818,1.528,8.219,1.66c4.654,1.007,9.167,2.139,13.156,3.557
		c3.836,1.363,6.448,5.036,9.237,7.986c0.795,0.84,3.006,2.591,3.266,3.82C410.994,478.132,408.598,473.425,404.982,469.585z
		 M354.501,440.426c-2.104,0-3.957,1.009-5.153,2.551c-1.813-2.651-3.931-4.432-3.065-5.979c1.142-2.034,5.226-3.94,8.899-1.146
		c2.105,1.605,3.585,4.399,4.273,6.882C358.255,441.332,356.492,440.426,354.501,440.426z M390.965,433.271
		c0,0-0.186,1.998-1.117,5.297c-0.579,1.966-1.516,4.476-3.002,6.983c-0.095,0.331-0.186,0.669-0.287,0.99
		c-0.296,1.188-0.775,2.225-1.196,3.118c-0.752,1.845-1.566,2.901-1.566,2.901s-0.479,0.458-1.203,1.145
		c-0.713,0.683-1.85,1.385-2.872,2.152c-1.016,0.787-2.224,1.29-3.025,1.778c-0.827,0.45-1.378,0.751-1.378,0.751
		s0.422-0.47,1.047-1.174c0.594-0.732,1.515-1.557,2.18-2.603c0.677-1.029,1.437-1.956,1.833-2.765
		c0.397-0.792,0.665-1.321,0.665-1.321s0.878-0.789,1.798-2.282c0.508-0.718,1.105-1.562,1.551-2.585
		c0.515-0.989,1.05-2.067,1.404-3.229c0.264-0.666,0.429-1.339,0.63-2.012c-1.074-7.309-15.549-18.588-25.975-20.564
		c-7.404-1.403-12.763,1.191-16.229,5.012c1.102-8.435,3.246-12.016,6.874-14.149c9.741-5.729,30.034,3.916,40.476,20.358
		C391.225,432.475,390.965,433.271,390.965,433.271z"/>
	<path d="M220.054,393.639c2.904-0.604,5.591-1.33,7.645-2.021c9.462-3.181,18.332-9.239,28.712-8.429
		c4.061,0.313,8.089,1.243,11.964,2.455c1.102,0.344,3.891,0.791,4.717,1.738c-3.478-3.976-7.869-6.912-12.905-8.498
		c-7.829-2.467-15.863-1.74-23.733,0.162c-9.954,2.409-19.278,8.279-29.987,5.948c-1.916-0.415-8.302-1.786-8.836-4.001
		c0.008,0.023,1.997,11.667,1.997,11.667c1.395,0.881,3.138,1.396,5.01,1.739c-1.102,1.034-1.961,2.378-3.564,4.563
		c-7.05,10.745-4.953,16.113-5.862,23.803c0.486,20.714,5.825,31.614,10.815,38.743c-4.255,1.981-8.183,4.554-11.5,8.075
		c-3.616,3.84-6.012,8.547-7.103,13.715c0.259-1.229,2.471-2.98,3.265-3.82c2.792-2.95,5.404-6.623,9.238-7.986
		c3.991-1.418,8.504-2.55,13.158-3.557c2.4-0.132,5.197-0.729,8.219-1.66c2.63-0.496,5.247-0.974,7.796-1.454
		c6.608-1.245,22.638-8.39,28.642-18.678c0.716-0.675,1.345-1.314,1.75-1.857c3.021-6.378,5.764-17.473,5.371-26.521
		c-0.374-9.086,1.274-15.821-2.684-21.823c-2.274-3.529-9.277-4.117-10.158-4.028c-14.811,1.501,2.711,2.002,4.029,4.532
		c3.187,5.952,6.02,11.942,5.591,20.277c-0.02,0.44-0.122,0.889-0.158,1.333c-3.045-17.826-17.983-23.07-40.38-13.182
		c-5.286,2.331-10.003,4.491-13.683,7.741c0.714-3.878,1.995-7.934,4.048-11.721C213.706,396.528,216.73,394.829,220.054,393.639z
		 M250.158,443.329c-1.174-1.751-3.169-2.903-5.439-2.903c-1.626,0-3.094,0.613-4.239,1.593c0.764-2.287,2.164-4.715,4.066-6.167
		c3.675-2.795,7.758-0.889,8.899,1.146C254.348,438.61,252.013,440.486,250.158,443.329z M248.413,410.716
		c3.631,2.134,5.772,5.715,6.874,14.149c-3.462-3.82-8.821-6.415-16.229-5.012c-8.323,1.577-19.231,9.092-23.842,15.778
		c-0.108,0.533-0.212,1.068-0.277,1.611c-0.362,2.771-0.092,5.537,0.419,7.451c0.456,1.951,1.225,2.996,1.146,3.029
		c-0.027,0.019,0.199,0.585,0.51,1.515c0.374,0.874,0.97,2.076,1.916,3.034c0.409,0.557,0.962,0.952,1.487,1.339
		c0.512,0.415,1.021,0.775,1.519,0.968c0.979,0.473,1.632,0.787,1.632,0.787s-0.724-0.114-1.812-0.283
		c-0.568-0.047-1.186-0.248-1.849-0.516c-0.675-0.237-1.415-0.495-2.046-0.958c-2.795-1.556-4.499-4.521-4.501-4.521
		c0.085-0.012-0.614-1.48-0.828-3.743c-1.412-2.439-2.309-4.867-2.87-6.777c-0.932-3.299-1.117-5.297-1.117-5.297
		s-0.262-0.797-0.604-2.197C218.38,414.632,238.671,404.987,248.413,410.716z"/>
</g>
<g id="black" display="none">
	<path display="inline" d="M343.493,468.64c-7.648-7.515-16.461-9.411-15.58-8.381c3.683,4.336,2.841,5.89,1.307,6.297
		c-7.869,2.102-17.886,7.855-27.887,7.995v-0.002c-0.181,0.004-0.362,0.008-0.543,0.012c-0.188-0.004-0.386-0.008-0.582-0.012
		v-0.008c-0.087,0.002-0.173,0.004-0.26,0.006c-0.087-0.002-0.173-0.004-0.252-0.006v0.008c-0.196,0.004-0.394,0.008-0.59,0.012
		c-0.181-0.004-0.354-0.008-0.543-0.012v0.002c-10.001-0.14-20.014-5.894-27.884-7.995c-1.533-0.407-2.373-1.961,1.31-6.297
		c0.877-1.03-7.936,0.866-15.586,8.381c-3.805,3.733-7.652,11.271-3.118,18.208c0.128,0.194,0.276,0.336,0.419,0.493
		c0.222,0.415,0.535,0.907,0.796,1.355c1.908,4.107,5.245,10.851,9.19,16.878c1.336,4.716,0.805,9.832-3.116,16.375
		c4.249,1.102,5.317-0.413,9.372-4.15l0.855-1.731c0.23-0.342,0.437-0.692,0.655-1.043c1.426,1.239,2.858,2.184,4.265,2.676
		c0,0,12.352-38.216-12.204-35.685c-8.25-14.149,15.023-5.366,35.045-4.243v0.116c0.181,0,0.362,0,0.543-0.002
		c0.196,0.004,0.394,0.002,0.59,0.002v0.002c0.087-0.002,0.165,0,0.252-0.002c0.087,0.002,0.173,0,0.26,0.002v-0.002
		c0.196,0,0.386,0.002,0.582-0.002c0.181,0.002,0.362,0.002,0.543,0.002v-0.116c20.025-1.123,43.301-9.906,35.047,4.243
		c-24.558-2.531-12.204,35.685-12.204,35.685c1.408-0.492,2.841-1.437,4.265-2.676c0.221,0.351,0.425,0.701,0.653,1.043l0.857,1.731
		c4.053,3.737,5.123,5.252,9.372,4.15c-3.919-6.543-4.454-11.659-3.116-16.375c3.95-6.027,7.286-12.771,9.19-16.878
		c0.26-0.448,0.574-0.94,0.795-1.355c0.149-0.157,0.291-0.299,0.425-0.493C351.149,479.911,347.302,472.373,343.493,468.64z"/>
	<path display="inline" d="M538.816,454.914c-1.681-10.994-11.079-27.528-13.767-32.9c-17.461-36.259-35.098-63.996-65.802-93.334
		c-3.828-3.657-8.758-7.55-14.502-11.463c0.709-2,1.374-4.009,1.96-6.029c6.767,4.499,13.919,9.72,21.686,15.759
		c25.703,19.986,37.793,54.142,47.007,61.812c5.265,4.379,17.374-7.369,19.656-20.248c-9.466-39.676-45.87-77.402-84.1-96.337
		c-2.102-35.375-19.463-70.481-46.24-97.811c4.092,24.442,4.159,60.632-8.356,80.555c-36.102-7.563-64.92-4.741-95.978,26.23
		c-18.989-30.07-56.982-24.318-85.899-12.181c-4.127,1.631-8.36,3.452-12.631,5.364c-12.531-4.287-23.95-49.395-32.098-88.579
		c-21.32,46.692-32.837,85.508-22.115,118.787c-5.877,4.011-11.527,8.119-16.709,12.299c-15.568,11.879-56.604,52.486-63.155,92.753
		c-1.489,9.155,14.759,18.856,30.276,7.367c-0.848,1.511-1.652,2.979-2.394,4.383c-7.154,13.537-36.258,67.818-24.843,85.947
		c3.032,4.813,15.086,5.947,22.935,3.356c-7.554,19.533-14.566,32.635-8.834,36.263c32.901,20.813,40.362-10.513,43.98-17.461
		c11.232-21.579,17.191-43.192,22.006-62.851c11.402,25.597,31.4,72.446,44.808,89.966c6.214,8.116,14.545,27.596,24.802,45.992
		c3.468,11.964,9.991,22.197,24.546,32.985L300,670l53.16-33.12c14.553-10.788,22.76-22.363,26.229-34.327
		c10.257-18.396,18.586-37.876,24.802-45.992c13.156-17.188,32.651-62.606,44.151-88.486c5.287,18.398,9.981,35.202,16.949,43.242
		c7.321,8.446,17.625,2.518,28.704-5.54c8.108-5.897-2.424-33.87-4.532-42.302c-9.399-40.287-27.862-78.056-57.409-107.599
		c-1.861-1.861-3.77-3.688-5.705-5.488c0.614-0.779,1.181-1.572,1.771-2.359c26.175,20.408,44.564,45.53,63.358,87.413
		c4.697,10.469,11.008,24.102,19.137,39.616C516.154,485.633,540.492,465.908,538.816,454.914z M477.987,293.577
		c2.369,1.664,4.792,4.029,7.515,6.431c1.35,1.218,2.746,2.475,4.163,3.753c1.325,1.369,2.667,2.762,4.013,4.153
		c10.854,11.081,19.801,23.846,19.801,23.846s0.965,1.686,2.408,4.218c1.479,2.508,3.356,5.899,5.083,9.368
		c1.817,3.417,3.498,6.897,4.71,9.531c1.235,2.618,2.058,4.363,2.058,4.363s-1.012-1.643-2.53-4.107
		c-1.491-2.479-3.541-5.74-5.713-8.917c-2.089-3.232-4.308-6.368-6.039-8.671c-1.691-2.323-2.816-3.874-2.816-3.874
		c-0.004,0-8.101-13.038-18.224-24.599c-1.256-1.452-2.511-2.905-3.746-4.335c-1.329-1.338-2.636-2.656-3.902-3.929
		c-2.558-2.526-4.84-5.018-7.117-6.812c-4.391-3.759-7.322-6.266-7.322-6.266S473.393,290.067,477.987,293.577z M366.159,256.653
		c2.667-0.413,6.365-0.796,10.013-0.702c3.658,0.049,7.333,0.368,10.052,0.805c2.738,0.346,4.536,0.748,4.536,0.746
		c0,0,3.479,1.259,6.779,2.874c1.676,0.729,3.293,1.597,4.497,2.24c1.207,0.636,2.01,1.061,2.01,1.061s-0.881-0.224-2.203-0.563
		c-1.317-0.34-3.061-0.799-4.843-1.114c-3.521-0.783-7.078-1.176-7.078-1.176s-1.68-0.59-4.269-1.233
		c-2.569-0.734-6.063-1.459-9.6-1.932c-3.553-0.512-7.094-0.566-9.809-0.476c-2.698,0.27-4.501,0.451-4.501,0.451
		S363.511,257.242,366.159,256.653z M352.526,285.309c2.525-0.027,4.611,0.386,6.086,0.474c1.472,0.149,2.31,0.234,2.31,0.234
		s0.413,0.083,1.142,0.229c0.712,0.195,1.778,0.238,2.962,0.718c2.385,0.818,5.56,1.91,8.738,3.002
		c3.108,1.218,6.016,2.916,8.262,3.968c2.22,1.111,3.698,1.853,3.698,1.853s-1.565-0.547-3.914-1.365
		c-2.364-0.753-5.406-2.04-8.585-2.831c-3.198-0.653-6.401-1.308-8.801-1.8c-1.177-0.313-2.227-0.216-2.927-0.314
		c-0.709-0.047-1.114-0.075-1.114-0.075s-0.798-0.134-2.195-0.366c-1.4-0.173-3.387-0.712-5.811-0.838
		c-2.439-0.09-5.284-0.193-8.333-0.305c-3.053,0.244-6.311,0.505-9.564,0.765c-3.21,0.631-6.452,1.192-9.458,1.869
		c-2.963,0.866-5.729,1.672-8.097,2.363c-4.65,1.739-7.747,2.897-7.747,2.897s3.018-1.357,7.543-3.392
		c2.341-0.852,5.075-1.847,8.002-2.911c2.99-0.881,6.228-1.66,9.462-2.514c3.301-0.478,6.609-1.027,9.729-1.416
		C347.065,285.464,350.009,285.38,352.526,285.309z M305.586,288.494c0.314-0.779,0.603-1.961,1.235-3.258
		c0.708-1.257,1.448-2.829,2.439-4.369c1.074-1.463,2.125-3.132,3.372-4.631c4.847-6.183,11.26-10.878,11.256-10.88
		c0,0,0.861-0.478,2.156-1.194c1.354-0.592,3.159-1.381,4.961-2.172c1.771-0.824,3.718-1.251,5.079-1.739
		c1.381-0.435,2.302-0.724,2.302-0.724s-0.838,0.488-2.094,1.218c-1.227,0.779-2.958,1.58-4.48,2.758
		c-1.53,1.125-3.062,2.249-4.21,3.093c-1.059,0.948-1.767,1.582-1.767,1.582c0-0.002-1.633,0.938-3.95,2.553
		c-1.129,0.858-2.443,1.857-3.852,2.929c-1.365,1.129-2.715,2.455-4.131,3.726c-1.369,1.314-2.546,2.801-3.766,4.115
		c-1.117,1.375-1.979,2.782-2.828,3.948c-0.771,1.212-1.188,2.363-1.586,3.1c-0.365,0.759-0.574,1.194-0.574,1.194
		S305.307,289.289,305.586,288.494z M305.85,301.231c1.074-0.433,2.64-0.905,4.6-1.307c3.887-0.855,9.229-1.288,14.557-0.873
		c10.725,0.637,20.816,4.764,20.816,4.764c0,0.002,4.835,2.455,9.076,5.758c1.035,0.848,2.065,1.696,3.038,2.491
		c0.896,0.867,1.734,1.678,2.454,2.372c1.303,1.499,2.168,2.5,2.168,2.5s-1.011-0.84-2.525-2.101
		c-0.807-0.559-1.747-1.209-2.754-1.908c-1.055-0.609-2.18-1.263-3.309-1.914c-4.576-2.494-9.51-4.052-9.51-4.054
		c0,0-2.298-1.157-5.917-2.536c-3.604-1.414-8.597-2.892-13.73-3.67c-5.131-0.824-10.387-0.831-14.263-0.301
		c-0.972,0.146-1.86,0.279-2.647,0.397c-0.775,0.203-1.451,0.378-2.011,0.521c-1.113,0.291-1.75,0.458-1.75,0.458
		S304.764,301.611,305.85,301.231z M225.726,268.692c2.847-0.895,5.693-1.788,7.827-2.461c2.128-0.708,3.6-1.033,3.598-1.033
		c0,0,2.97-0.419,7.426-1.048c2.254-0.126,4.885-0.273,7.704-0.431c2.819-0.01,5.842,0.281,8.829,0.472
		c2.941,0.672,5.939,1.009,8.602,1.924c2.634,0.991,5.174,1.688,7.161,2.677c3.974,1.995,6.624,3.324,6.624,3.324
		s-2.738-1.135-6.844-2.836c-2.058-0.846-4.605-1.338-7.226-2.121c-2.646-0.7-5.618-0.814-8.482-1.263
		c-2.925,0.032-5.838-0.045-8.557,0.162c-2.71,0.35-5.242,0.677-7.412,0.956c-4.292,0.926-7.156,1.544-7.156,1.544
		s-1.464,0.106-3.642,0.496c-2.189,0.354-5.106,0.826-8.024,1.298c-5.825,1.133-11.649,2.268-11.649,2.268
		S220.113,270.658,225.726,268.692z M272.919,296.793c0,0-1.754-0.5-4.389-1.251c-2.693-0.48-6.226-0.918-9.859-0.966
		c-7.225-0.106-14.458,0.581-14.458,0.583l-14.602-1.387l14.533-2.038c0.002-0.002,7.353,0.163,14.665,1.135
		c1.826,0.329,3.643,0.521,5.337,0.94c1.688,0.455,3.26,0.824,4.566,1.229C271.236,296.091,272.919,296.793,272.919,296.793z
		 M211.721,331.433c5.689-5.333,11.899-10.176,11.897-10.178c0,0,0.813-0.551,2.284-1.448c1.458-0.915,3.535-2.225,6.141-3.618
		c5.158-2.851,12.352-6.194,19.969-8.179c7.593-2.076,15.485-2.671,21.33-2.233c2.935,0.02,5.317,0.505,7.005,0.714
		c1.059,0.15,1.831,0.259,2.258,0.319l0.021-0.014c0.005,0.006,0.009,0.013,0.014,0.019c0.225,0.032,0.35,0.049,0.35,0.049
		s-0.12-0.01-0.334-0.028c0.105,0.138,0.207,0.291,0.313,0.418c-0.346-0.002-0.694-0.008-1.041-0.006l0.647-0.419
		c-0.436-0.037-1.201-0.103-2.245-0.191c-1.694-0.116-4.116-0.47-7.017-0.329c-5.781-0.114-13.534,0.909-20.82,3.344
		c-7.324,2.347-14.126,5.982-18.989,9.029c-2.457,1.491-4.413,2.882-5.784,3.852c-1.381,0.95-2.144,1.532-2.146,1.53
		c0.002,0.004-6.549,4.035-12.765,8.691c-6.204,4.68-12.409,9.36-12.409,9.36S206.062,336.776,211.721,331.433z M149.367,266.239
		c2.4-24.345,18.469-65.465,18.469-65.465c-4.701,32.901-1.341,56.402-1.341,56.402c1.678,31.056-16.451,20.144-16.451,20.144
		C149.286,274.293,148.906,270.912,149.367,266.239z M163.465,332.872c0.515,0.622,1.08,1.233,1.619,1.851
		c-26.307,22.916-47.57,50.585-60.979,72.043c7.825-14.563,23.358-37.769,26.802-41.491
		C146.422,348.5,152.02,341.352,163.465,332.872z M85.485,373.601c-4.696,8.189-8.195,17.049-9.82,23.964
		c-0.718,3.464-1.285,6.385-1.337,8.474c-0.175,2.072-0.273,3.256-0.273,3.256s0.045-1.188,0.125-3.266
		c-0.039-2.089,0.392-5.024,0.96-8.573c1.322-7.039,4.452-16.152,8.836-24.664c4.316-8.551,9.718-16.504,14.038-22.252
		c4.393-5.697,7.623-9.257,7.623-9.257c-0.002,0,6.789-6.834,14.372-12.681c3.779-2.939,7.745-5.61,10.762-7.522
		c3.086-1.798,5.144-2.996,5.144-2.996s-1.938,1.375-4.841,3.438c-2.825,2.168-6.5,5.158-9.956,8.386
		c-6.948,6.435-12.963,13.695-12.963,13.695c0.002,0-3.313,3.34-7.88,8.738C95.785,357.787,90.12,365.368,85.485,373.601z
		 M78.179,479.994c-1.005,3.386-1.178,6.628-1.727,9.435c-0.567,2.813-0.622,5.317-0.683,7.375
		c-0.164,4.111-0.258,6.462-0.258,6.462s0.04-2.351,0.11-6.466c0.014-2.06,0.012-4.56,0.515-7.396
		c0.484-2.823,0.59-6.11,1.521-9.525c2.782-13.897,10.029-31.523,19.221-47.988c9.865-16.042,16.858-33.528,25.298-45.274
		c4.152-5.866,8.451-10.107,11.169-13.129c2.803-3.014,4.406-4.735,4.406-4.735s3.314-3.336,8.286-8.341
		c4.896-5.071,11.256-11.957,17.913-18.641c3.313-3.346,6.627-6.694,9.733-9.832c3.112-3.13,6.311-5.756,8.899-8.154
		c5.252-4.713,8.754-7.855,8.754-7.855s-3.356,3.297-8.388,8.245c-2.475,2.512-5.53,5.262-8.492,8.525
		c-2.953,3.268-6.104,6.753-9.255,10.239c-6.313,6.946-12.403,14.171-17.075,19.471c-4.741,5.227-7.902,8.712-7.902,8.712
		s-1.641,1.684-4.513,4.633c-2.848,3.021-7.058,6.985-11.199,12.563c-8.375,11.055-15.934,28.616-26.147,44.42
		C88.859,448.896,81.266,466.229,78.179,479.994z M127.075,422.17c-8.416,17.467-15.865,36.379-22.524,56.359
		c4.784-24.257,11.555-40.83,15.948-47.117C122.733,428.214,124.909,425.178,127.075,422.17z M150.144,405.475
		c-3.503,6.324-6.987,12.633-9.228,17.566c-1.178,2.434-2.162,4.46-2.848,5.879c-0.632,1.445-0.994,2.271-0.994,2.271
		s-0.785,1.623-2.16,4.459c-1.385,2.835-3.38,6.877-5.473,11.872c-2.237,4.934-4.598,10.786-7.031,17.097
		c-2.583,6.287-4.509,13.239-7.505,19.957c-5.783,13.398-13.333,25.787-17.503,35.819c-1.172,2.455-1.942,4.812-2.723,6.874
		c-0.822,2.045-1.379,3.891-1.749,5.433c-0.83,3.062-1.304,4.808-1.304,4.808s0.421-1.763,1.161-4.843
		c0.325-1.554,0.826-3.411,1.589-5.488c0.722-2.089,1.43-4.497,2.53-6.987c3.887-10.18,11.105-22.876,16.414-36.265
		c2.725-6.605,4.489-13.73,6.881-20.087c2.264-6.435,4.471-12.408,6.576-17.44c1.961-5.093,3.85-9.229,5.164-12.134
		c1.304-2.907,2.05-4.567,2.05-4.567s0.413-0.811,1.135-2.231c0.779-1.391,1.892-3.377,3.226-5.761
		c2.547-4.833,6.442-10.994,10.333-17.132c1.983-3.047,4.18-5.953,6.125-8.746c1.912-2.817,3.877-5.313,5.632-7.398
		c3.429-4.219,5.715-7.033,5.715-7.033s-2.115,2.941-5.286,7.354c-1.623,2.176-3.429,4.772-5.166,7.689
		C153.936,399.333,151.93,402.337,150.144,405.475z M392.105,549.086c-3.651,4.139-15.359,32.363-27.053,50.839
		c-5.622,6.968-16.838,15.879-37.411,15.466c0,0-21.524-3.958-29.181-4.08c-0.122-0.004-0.228-0.012-0.362-0.012
		c-0.138,0-0.244,0.008-0.366,0.012c-7.656,0.122-29.179,4.08-29.179,4.08c-18.617,0.373-29.572-6.889-35.659-13.439
		c-11.508-19.625-20.419-45.491-24.396-50.451c-42.5-53-42-135.599-42.001-136.816c1.7-3.399,3.557-6.592,5.705-9.456
		c20.313-27.084,30.235-42.416,46.665-53.046c3.395-2.197,7.444-3.887,11.661-5.252c17.791-0.586,66.681,5.26,56.491,89.185
		c-0.59,4.867,26.525,5.037,24.798-2.779c-3.931-17.777-8.612-85.138,35.133-85.99c6.551,2.315,12.456,4.245,16.615,5.845
		c28.201,10.743,52.708,40.624,67.48,67.481c0.693,1.269,1.338,2.606,1.991,3.934C431.661,448.867,424.938,511.848,392.105,549.086z
		 M438.46,377.275c4.674,7.052,9.111,14.378,12.719,21.405c3.738,6.979,7.228,13.493,10.218,19.078
		c5.331,11.551,8.884,19.25,8.884,19.25s0.409,0.982,1.121,2.697c0.673,1.729,1.813,4.131,2.856,7.133
		c2.097,5.994,4.891,13.986,7.684,21.979c1.491,3.958,2.597,8.047,3.679,11.863c1.086,3.811,2.097,7.369,2.967,10.418
		c1.734,6.093,2.892,10.153,2.892,10.153s-1.361-4-3.403-9.997c-1.019-2.996-2.211-6.492-3.486-10.237
		c-1.271-3.744-2.572-7.753-4.261-11.626c-3.183-7.806-6.361-15.609-8.746-21.464c-1.188-2.925-2.438-5.244-3.19-6.922
		c-0.791-1.66-1.243-2.609-1.243-2.609s-3.324-7.721-8.317-19.303c-2.848-5.66-6.169-12.259-9.729-19.331
		c-3.446-7.155-7.601-14.396-12.066-21.539c-9.084-14.166-21.158-26.175-31.14-33.9c-4.863-4.05-9.301-6.93-12.354-9.008
		c-3.054-2.083-4.796-3.271-4.796-3.271s1.773,1.145,4.878,3.147c3.108,2.002,7.605,4.762,12.594,8.703
		C416.428,351.394,428.903,363.171,438.46,377.275z M422.486,248.449c0,0,5.539-23.669-12.086-64.46
		c-0.634-1.461,29.712,35.251,32.733,63.956c0,0-0.634,6.153-5.036,9.065C431.85,261.143,421.302,261.15,422.486,248.449z
		 M534.421,452.592c-0.613-1.455-1.184-3.657-2.521-6.018c-2.188-4.959-6.429-10.811-11.012-16.349
		c-4.568-5.515-9.435-11.089-12.559-15.488c-3.167-4.434-5.276-7.388-5.276-7.388s-0.983-1.537-2.711-4.224
		c-1.738-2.681-3.815-6.708-6.515-11.435c-5.272-9.407-11.783-22.42-20.207-34.097c-7.959-12.043-16.331-23.877-24.412-31.119
		c-3.997-3.618-7.73-6.226-10.583-7.569c-1.361-0.813-2.585-1.124-3.353-1.485c-0.782-0.315-1.203-0.484-1.203-0.484
		s0.425,0.155,1.219,0.449c0.775,0.338,2.007,0.611,3.396,1.387c2.916,1.269,6.739,3.775,10.879,7.304
		c8.356,7.046,17.157,18.743,25.467,30.54c8.855,11.561,15.713,24.318,21.308,33.643c2.813,4.607,5.005,8.559,6.787,11.132
		c1.771,2.583,2.781,4.061,2.781,4.061s1.821,3.033,4.784,7.619c2.899,4.633,7.243,10.219,11.555,16.107
		c4.281,5.847,8.239,12.049,10.144,17.175c1.199,2.451,1.648,4.706,2.171,6.195c0.469,1.511,0.732,2.374,0.732,2.374
		S534.976,454.073,534.421,452.592z"/>
	<path display="inline" d="M404.982,468.14c-3.316-3.521-7.243-6.094-11.5-8.075c4.989-7.129,10.332-18.029,10.815-38.743
		c-0.909-7.689,1.188-13.058-5.862-23.802c-1.601-2.186-2.463-3.529-3.564-4.564c1.873-0.342,3.616-0.858,5.009-1.739
		c0,0,1.99-11.644,1.998-11.667c-0.534,2.215-6.92,3.586-8.836,4.001c-10.709,2.332-20.033-3.539-29.987-5.948
		c-7.869-1.902-15.906-2.628-23.735-0.162c-5.032,1.585-9.423,4.522-12.901,8.498c0.826-0.948,3.612-1.395,4.714-1.739
		c3.879-1.212,7.908-2.142,11.964-2.455c10.383-0.811,19.251,5.249,28.717,8.429c2.054,0.69,4.736,1.417,7.641,2.021
		c3.328,1.19,6.35,2.89,8.588,7.257c2.054,3.787,3.333,7.843,4.049,11.72c-3.683-3.25-8.396-5.41-13.684-7.741
		c-22.395-9.889-37.337-4.645-40.382,13.182c-0.031-0.444-0.134-0.893-0.157-1.333c-0.429-8.335,2.404-14.325,5.595-20.277
		c1.313-2.53,18.837-3.031,4.028-4.532c-0.881-0.089-7.884,0.5-10.158,4.028c-3.962,6.002-2.313,12.737-2.684,21.824
		c-0.396,9.048,2.346,20.144,5.367,26.521c0.409,0.543,1.038,1.183,1.754,1.857c6,10.288,22.032,17.433,28.643,18.678
		c2.549,0.48,5.161,0.958,7.794,1.454c3.021,0.931,5.818,1.528,8.219,1.66c4.654,1.007,9.167,2.139,13.156,3.557
		c3.836,1.363,6.448,5.036,9.237,7.986c0.795,0.84,3.006,2.591,3.266,3.82C410.994,476.687,408.598,471.979,404.982,468.14z
		 M354.501,438.98c-2.104,0-3.957,1.01-5.153,2.551c-1.813-2.65-3.931-4.432-3.065-5.979c1.142-2.034,5.226-3.94,8.899-1.146
		c2.105,1.605,3.585,4.399,4.273,6.882C358.255,439.887,356.492,438.98,354.501,438.98z M390.965,431.826
		c0,0-0.186,1.998-1.117,5.297c-0.579,1.966-1.516,4.476-3.002,6.984c-0.095,0.33-0.186,0.668-0.287,0.989
		c-0.296,1.188-0.775,2.225-1.196,3.118c-0.752,1.845-1.566,2.901-1.566,2.901s-0.479,0.458-1.203,1.145
		c-0.713,0.683-1.85,1.385-2.872,2.152c-1.016,0.787-2.224,1.29-3.025,1.778c-0.827,0.45-1.378,0.751-1.378,0.751
		s0.422-0.47,1.047-1.174c0.594-0.732,1.515-1.557,2.18-2.603c0.677-1.029,1.437-1.956,1.833-2.765
		c0.397-0.792,0.665-1.321,0.665-1.321s0.878-0.789,1.798-2.282c0.508-0.718,1.105-1.562,1.551-2.585
		c0.515-0.989,1.05-2.067,1.404-3.229c0.264-0.666,0.429-1.339,0.63-2.012c-1.074-7.309-15.549-18.587-25.975-20.564
		c-7.404-1.403-12.763,1.192-16.229,5.012c1.102-8.435,3.246-12.015,6.874-14.149c9.741-5.728,30.034,3.917,40.476,20.358
		C391.225,431.029,390.965,431.826,390.965,431.826z"/>
	<path display="inline" d="M220.054,392.194c2.904-0.604,5.591-1.33,7.645-2.021c9.462-3.181,18.332-9.24,28.712-8.429
		c4.061,0.313,8.089,1.243,11.964,2.455c1.102,0.344,3.891,0.791,4.717,1.739c-3.478-3.976-7.869-6.913-12.905-8.498
		c-7.829-2.467-15.863-1.741-23.733,0.162c-9.954,2.41-19.278,8.28-29.987,5.948c-1.916-0.415-8.302-1.786-8.836-4.001
		c0.008,0.023,1.997,11.667,1.997,11.667c1.395,0.881,3.138,1.397,5.01,1.739c-1.102,1.035-1.961,2.378-3.564,4.564
		c-7.05,10.745-4.953,16.113-5.862,23.802c0.486,20.714,5.825,31.614,10.815,38.743c-4.255,1.981-8.183,4.554-11.5,8.075
		c-3.616,3.84-6.012,8.547-7.103,13.715c0.259-1.229,2.471-2.98,3.265-3.82c2.792-2.95,5.404-6.623,9.238-7.986
		c3.991-1.418,8.504-2.55,13.158-3.557c2.4-0.132,5.197-0.729,8.219-1.66c2.63-0.496,5.247-0.974,7.796-1.454
		c6.608-1.245,22.638-8.39,28.642-18.678c0.716-0.675,1.345-1.314,1.75-1.857c3.021-6.377,5.764-17.473,5.371-26.521
		c-0.374-9.086,1.274-15.822-2.684-21.824c-2.274-3.529-9.277-4.117-10.158-4.028c-14.811,1.501,2.711,2.002,4.029,4.532
		c3.187,5.953,6.02,11.942,5.591,20.277c-0.02,0.44-0.122,0.889-0.158,1.333c-3.045-17.826-17.983-23.071-40.38-13.182
		c-5.286,2.331-10.003,4.491-13.683,7.741c0.714-3.877,1.995-7.934,4.048-11.72C213.706,395.083,216.73,393.384,220.054,392.194z
		 M250.158,441.885c-1.174-1.752-3.169-2.904-5.439-2.904c-1.626,0-3.094,0.613-4.239,1.594c0.764-2.288,2.164-4.715,4.066-6.168
		c3.675-2.795,7.758-0.889,8.899,1.146C254.348,437.165,252.013,439.041,250.158,441.885z M248.413,409.271
		c3.631,2.134,5.772,5.715,6.874,14.149c-3.462-3.82-8.821-6.415-16.229-5.012c-8.323,1.578-19.231,9.092-23.842,15.778
		c-0.108,0.533-0.212,1.068-0.277,1.611c-0.362,2.771-0.092,5.538,0.419,7.451c0.456,1.952,1.225,2.996,1.146,3.029
		c-0.027,0.019,0.199,0.585,0.51,1.515c0.374,0.874,0.97,2.076,1.916,3.034c0.409,0.557,0.962,0.952,1.487,1.339
		c0.512,0.415,1.021,0.775,1.519,0.968c0.979,0.473,1.632,0.787,1.632,0.787s-0.724-0.114-1.812-0.283
		c-0.568-0.047-1.186-0.248-1.849-0.516c-0.675-0.237-1.415-0.495-2.046-0.958c-2.795-1.556-4.499-4.521-4.501-4.521
		c0.085-0.012-0.614-1.48-0.828-3.743c-1.412-2.439-2.309-4.867-2.87-6.777c-0.932-3.299-1.117-5.297-1.117-5.297
		s-0.262-0.797-0.604-2.197C218.38,413.187,238.671,403.542,248.413,409.271z"/>
	<path display="inline" d="M382.844,522.474l0.095-0.114l-0.11,0.035l-0.692-3.64l-27.154,12.854l-1.468,0.37
		c0,0,5.119,15.037-12.224,28.304c0,0-16.226,8.903-36.251,6.369c-2.88-0.621-5.496-0.669-7.617-0.476l0.004-0.012
		c-0.047,0.008-0.09,0.012-0.137,0.02c-1.161,0.11-2.137,0.268-2.928,0.44c-20.104,2.612-36.434-6.342-36.434-6.342
		c-17.342-13.267-12.222-28.304-12.222-28.304l-27.936-13.224l-0.692,3.64l-0.11-0.035l0.094,0.114l-2.043,10.721
		c2.439-1.578,5.458-2.459,8.638-2.907L237,550.828c5.484,8.124,9.179,11.964,11.614,14.297c3.137,3.625,5.387,4.625,14.25,8.223
		c8.637,2.402,15.564,3.683,24.443,4.013c0.469,0.021,1.134,0.048,1.889,0.079c2.928,0.295,6.869,0.358,10.757,0.311
		c3.887,0.048,7.833-0.016,10.761-0.311c0.755-0.031,1.416-0.059,1.888-0.079c8.876-0.33,16.493-0.751,24.44-4.013
		c3.709-1.098,8.959-3.598,14.25-8.223c2.432-2.333,6.13-6.173,11.614-14.297l13.345-20.541c3.18,0.448,6.193,1.329,8.632,2.907
		L382.844,522.474z"/>
</g>
<g id="meka-kravica" display="none">
	<g display="inline">
		<g>
			<g>
				<path fill="#2BABE2" d="M258,96c-0.768,0.73-1.521,1.479-2.302,2.196c-0.828,0.662-1.591,1.41-2.475,2.003l-1.3,0.924
					l-1.383,0.799c-0.449,0.291-0.959,0.462-1.445,0.684c-0.248,0.099-0.486,0.226-0.742,0.302l-0.776,0.212
					c-0.261,0.062-0.514,0.163-0.782,0.191l-0.805,0.083c-0.536,0.102-1.079-0.026-1.62-0.052c-1.05-0.229-2.122-0.635-2.902-1.418
					c-0.451-0.323-0.726-0.81-1.092-1.214c-0.257-0.476-0.592-0.919-0.778-1.429c-0.213-0.499-0.423-0.999-0.546-1.526
					c-0.167-0.516-0.265-1.046-0.348-1.58c-0.636-4.263,0.242-8.72,2.432-12.465c1.112-1.856,2.616-3.542,4.529-4.665
					c1.9-1.139,4.156-1.649,6.361-1.559l0.49,0.02l-0.063,0.538c-0.377,3.266-1.745,6.223-3.293,8.998
					c-1.587,2.768-3.477,5.354-5.626,7.718c-2.16,2.348-4.563,4.517-7.348,6.191c-2.752,1.654-5.988,2.922-9.423,2.636
					c-0.847-0.081-1.689-0.239-2.504-0.503c-0.816-0.271-1.683-0.662-2.31-1.052c-1.441-0.83-2.838-2-3.749-3.498
					c-0.933-1.485-1.426-3.198-1.574-4.875c-0.158-1.684-0.041-3.35,0.21-4.974c0.558-3.238,1.64-6.308,2.962-9.235
					c1.312-2.938,2.899-5.728,4.625-8.424c1.492-2.237,3.117-4.383,4.88-6.43c0.881-1.023,1.804-2.016,2.794-2.963
					c0.99-0.948,2.02-1.862,3.268-2.648l3.458-2.179l-1.727,3.691c-3.833,8.19-8.188,16.106-13.251,23.612
					c-2.542,3.742-5.29,7.364-8.399,10.704c-1.567,1.658-3.229,3.242-5.048,4.665c-1.819,1.415-3.804,2.685-6.03,3.526l-0.836,0.309
					l-0.872,0.224c-0.564,0.173-1.202,0.241-1.827,0.317c-0.325,0.052-0.61,0.057-0.884,0.049l-0.841-0.001
					c-0.671-0.041-1.199-0.118-1.804-0.177c-0.586-0.08-1.169-0.245-1.753-0.366c-0.576-0.169-1.145-0.394-1.71-0.609
					c-1.086-0.552-2.172-1.191-2.996-2.131c-1.764-1.796-2.518-4.262-2.767-6.582c-0.248-2.354-0.007-4.683,0.444-6.932
					c0.924-4.506,2.649-8.761,4.786-12.767c1.077-2.001,2.271-3.941,3.614-5.785c1.347-1.839,2.843-3.593,4.678-5.068l1.71-1.374
					l-0.621,2.077c-0.763,2.551-1.897,4.87-3.1,7.146c-1.209,2.272-2.522,4.479-3.894,6.645c-2.747,4.33-5.75,8.487-8.946,12.489
					c-3.223,3.979-6.623,7.831-10.427,11.286c-1.903,1.723-3.902,3.354-6.077,4.75c-2.161,1.388-4.564,2.566-7.209,2.96
					c0.005-0.042,0.011-0.084,0.022-0.085c-1.447,0.206-2.955,0.148-4.37-0.286c-1.416-0.427-2.706-1.228-3.748-2.256
					c-2.09-2.083-3.235-4.879-3.775-7.685c-0.53-2.823-0.508-5.746,0.096-8.548c0.595-2.793,1.738-5.517,3.588-7.726
					c0.916-1.108,2.008-2.078,3.231-2.811c0.579-0.416,1.235-0.716,1.849-1.079c0.659-0.283,1.298-0.612,2.006-0.777
					c0.341-0.122,0.701-0.168,1.065-0.201c0.359-0.075,0.728-0.003,1.093,0.029c0.71,0.155,1.418,0.542,1.801,1.189
					c0.783,1.268,0.775,2.799,0.623,4.195c-0.179,1.417-0.591,2.797-1.181,4.093c-0.598,1.285-1.368,2.53-2.483,3.436
					c-0.566,0.409-1.238,0.796-1.977,0.722c-0.708-0.076-1.388-0.428-1.851-0.971c-0.982-1.042-1.523-2.391-2.027-3.705
					c0.518,1.309,1.075,2.65,2.06,3.673c0.465,0.534,1.135,0.868,1.822,0.935c0.714,0.065,1.366-0.319,1.917-0.726
					c1.086-0.9,1.837-2.141,2.415-3.419c0.57-1.289,0.963-2.661,1.125-4.059c0.139-1.375,0.113-2.878-0.631-4.047
					c-0.362-0.597-1.004-0.93-1.658-1.07c-0.341-0.023-0.68-0.091-1.024-0.014c-0.344,0.035-0.686,0.081-1.016,0.204
					c-0.679,0.164-1.305,0.495-1.944,0.777c-0.601,0.365-1.24,0.664-1.81,1.083c-1.205,0.739-2.243,1.688-3.123,2.774
					c-1.78,2.171-2.871,4.846-3.424,7.586c-0.562,2.748-0.551,5.609-0.006,8.35c0.551,2.724,1.7,5.405,3.685,7.335
					c0.988,0.955,2.189,1.679,3.499,2.059c1.309,0.386,2.705,0.427,4.063,0.22l0.029,0.035c2.459-0.279,4.776-1.426,6.869-2.811
					c2.107-1.388,4.059-3.017,5.917-4.74c3.716-3.455,7.047-7.318,10.198-11.302c3.125-4.009,6.059-8.173,8.729-12.493
					c1.333-2.161,2.606-4.359,3.769-6.606c1.155-2.243,2.238-4.554,3.024-6.884c0.306,0.219,0.612,0.438,0.895,0.625
					c-1.657,1.36-3.093,3.06-4.373,4.853c-1.28,1.798-2.425,3.7-3.453,5.661c-2.042,3.922-3.675,8.097-4.509,12.404
					c-0.409,2.147-0.602,4.343-0.354,6.458c0.249,2.097,0.935,4.167,2.379,5.59c0.669,0.76,1.571,1.264,2.477,1.723
					c0.486,0.172,0.967,0.361,1.466,0.503c0.517,0.097,1.02,0.239,1.545,0.305l1.548,0.141l0.841-0.007
					c0.287,0.005,0.562-0.004,0.792-0.055c0.488-0.077,0.971-0.119,1.482-0.284l0.757-0.201l0.739-0.284
					c1.97-0.768,3.804-1.955,5.504-3.31c1.702-1.36,3.282-2.896,4.779-4.513c2.974-3.262,5.631-6.836,8.089-10.541
					c4.897-7.424,9.138-15.326,12.999-23.344c0.515,0.476,1.031,0.953,1.512,1.374c-0.989,0.64-1.943,1.496-2.844,2.388
					c-0.907,0.893-1.772,1.849-2.6,2.839c-1.656,1.98-3.198,4.074-4.604,6.25c-1.717,2.563-3.305,5.225-4.616,8.006
					c-1.325,2.771-2.401,5.662-2.975,8.617c-0.512,2.919-0.552,6.048,0.914,8.459c0.712,1.212,1.759,2.141,3.013,2.909
					c0.705,0.451,1.283,0.695,1.945,0.941c0.676,0.234,1.379,0.381,2.093,0.466c2.887,0.314,5.853-0.725,8.468-2.23
					c2.643-1.512,5.007-3.547,7.142-5.774c2.127-2.243,4.021-4.723,5.617-7.376c1.562-2.65,2.932-5.517,3.084-8.531
					c0.246,0.196,0.491,0.393,0.732,0.674c-2.016-0.124-4.054,0.29-5.813,1.289c-1.77,0.984-3.213,2.521-4.307,4.26
					c-2.161,3.505-3.122,7.827-2.593,11.946c0.068,0.516,0.152,1.028,0.301,1.524c0.106,0.511,0.297,0.99,0.489,1.47
					c0.166,0.493,0.475,0.911,0.707,1.371c0.335,0.382,0.583,0.854,0.998,1.159c0.712,0.75,1.698,1.142,2.683,1.384
					c0.512,0.032,1.021,0.171,1.54,0.082l0.776-0.062c0.259-0.021,0.508-0.115,0.763-0.169l0.761-0.19
					c0.252-0.069,0.489-0.189,0.734-0.281c0.482-0.208,0.988-0.364,1.439-0.642l1.386-0.762l1.312-0.89
					c0.893-0.571,1.668-1.299,2.51-1.942C256.448,97.445,257.216,96.714,258,96z"/>
			</g>
		</g>
	</g>
	<g display="inline">
		<g>
			<g>
				<path fill="#2BABE2" d="M261,108c0,0,0.248-0.968,0.619-2.421c0.383-1.446,0.853-3.384,1.297-5.332
					c0.894-3.894,1.788-7.787,1.788-7.787s0.679-1.877,1.696-4.693c1.014-2.816,2.411-6.563,3.884-10.279
					c0.769-1.849,1.465-3.715,2.244-5.429c0.777-1.707,1.502-3.3,2.124-4.665C276.061,64.758,277,63,277,63s-0.796,1.828-1.991,4.57
					c-0.507,1.401-1.098,3.036-1.731,4.788c-0.631,1.745-1.179,3.668-1.792,5.555c-1.165,3.802-2.252,7.627-3.036,10.51
					c-0.788,2.881-1.313,4.802-1.313,4.802s-1.503,3.706-3.007,7.412c-0.749,1.854-1.524,3.7-2.135,5.072
					C261.398,107.084,261,108,261,108z"/>
			</g>
		</g>
	</g>
	<g display="inline">
		<g>
			<g>
				<path fill="#2BABE2" d="M291,89c0,0,0.053,0.342,0.146,0.94c0.099,0.599,0.234,1.455,0.322,2.496
					c0.065,0.519,0.097,1.084,0.11,1.687c0.041,0.602,0.022,1.239-0.016,1.903c-0.101,1.316-0.275,2.784-1.061,4.142
					c-0.413,0.651-0.938,1.313-1.662,1.705c-0.692,0.451-1.485,0.617-2.227,0.725c-1.491,0.125-2.796-0.165-3.853-0.462
					c-1.068-0.295-1.907-0.63-2.495-0.864c-0.578-0.247-0.908-0.388-0.908-0.388c-2.286-1.249-4.392-2.684-6.472-4.114
					c-2.074-1.406-4.122-2.946-6.216-3.998l-1.261-0.633l1.014-0.814c3.821-3.066,7.785-5.854,11.537-8.91
					c3.741-3.06,7.312-6.363,10.042-10.415c-2.469,4.188-5.901,7.779-9.476,11.068c-3.592,3.298-7.406,6.335-11.16,9.357
					c-0.011-0.399-0.022-0.798-0.07-1.112c2.463,1.051,4.542,2.449,6.716,3.72c2.151,1.287,4.301,2.552,6.503,3.577
					c0,0,0.289,0.165,0.794,0.454c0.509,0.274,1.24,0.668,2.139,1.031c0.893,0.373,1.972,0.725,3.082,0.76
					c1.101,0.024,2.171-0.404,2.906-1.388c0.743-0.975,1.095-2.309,1.326-3.538c0.108-0.624,0.198-1.234,0.226-1.822
					c0.055-0.585,0.088-1.142,0.083-1.658c0.032-1.032-0.004-1.895-0.033-2.499C291.013,89.346,291,89,291,89z"/>
			</g>
		</g>
	</g>
	<g display="inline">
		<g>
			<g>
				<path fill="#2BABE2" d="M335,94c0,0-0.092,0.101-0.263,0.289c-0.178,0.182-0.41,0.48-0.76,0.805
					c-0.679,0.67-1.731,1.558-3.153,2.4c-1.419,0.84-3.216,1.606-5.247,2.082c-2.032,0.442-4.298,0.632-6.546,0.265
					c-2.235-0.334-4.494-1.259-6.108-2.904c-1.646-1.647-2.233-3.965-2.179-5.777c0.049-1.844,0.562-3.254,0.902-4.214
					c0.195-0.473,0.348-0.845,0.451-1.098c0.12-0.243,0.184-0.372,0.184-0.372l0.645-1.121l5.09-8.864l-2.797,9.813
					c-0.76,2.663-2.098,4.976-3.633,7.094c-1.549,2.112-3.338,4.02-5.316,5.71c-1.99,1.673-4.177,3.135-6.582,4.197
					c-2.392,1.049-5.067,1.708-7.765,1.388l-0.708-0.084L291.24,103c0.143-3.367,1.187-6.458,2.426-9.424
					c1.286-2.949,2.884-5.759,4.858-8.299c0.997-1.26,2.096-2.449,3.348-3.471c1.245-1.016,2.676-1.885,4.284-2.213
					c0.792-0.207,1.628-0.16,2.428-0.042c0.791,0.184,1.556,0.485,2.216,0.944c1.341,0.897,2.352,2.173,3.199,3.505
					c-0.899-1.303-1.955-2.527-3.296-3.351c-0.661-0.423-1.409-0.682-2.167-0.829c-0.768-0.081-1.553-0.099-2.299,0.128
					c-1.508,0.367-2.848,1.248-4.012,2.275c-1.171,1.033-2.196,2.229-3.12,3.493c-1.829,2.548-3.287,5.358-4.428,8.273
					c-1.098,2.911-1.975,5.996-2.213,9.01c-0.129-0.231-0.259-0.462-0.396-0.617c2.376,0.187,4.77-0.487,6.943-1.545
					c2.182-1.067,4.186-2.519,5.995-4.167c1.798-1.664,3.413-3.531,4.771-5.546c1.348-2.011,2.469-4.199,3.211-6.377
					c0.695,0.299,1.391,0.599,2.025,0.862l-0.471,1.048c0,0-0.064,0.109-0.188,0.315c-0.105,0.211-0.26,0.521-0.455,0.916
					c-0.352,0.793-0.867,1.961-1.008,3.393c-0.129,1.412,0.15,3.102,1.321,4.485c1.157,1.377,3.037,2.374,5.062,2.824
					c2.025,0.488,4.18,0.474,6.15,0.194c1.973-0.312,3.766-0.922,5.209-1.639c1.444-0.718,2.548-1.516,3.27-2.131
					C334.617,94.39,335,94,335,94z"/>
			</g>
		</g>
	</g>
	<g display="inline">
		<g>
			<g>
				<path fill="#2BABE2" d="M370,78c0,0,0.193,0.336,0.266,0.771c0.015,0.225,0.048,0.465-0.149,0.736
					c-0.05,0.065-0.065,0.113-0.144,0.173c-0.078,0.06-0.157,0.107-0.224,0.143c-0.136,0.07-0.221,0.098-0.221,0.098
					c0.028-0.004-0.236,0.024-0.613-0.137c-0.207-0.088-0.285-0.188-0.435-0.343c-0.158-0.179-0.178-0.285-0.212-0.4
					c-0.132-0.504,0.035-0.769,0.141-1.066c0.136-0.28,0.277-0.522,0.398-0.688C368.923,77.115,369,77,369,77
					s0.082,0.111,0.206,0.277c0.118,0.173,0.297,0.381,0.471,0.55c0.094,0.076,0.185,0.156,0.27,0.198
					c0.044,0.01,0.083,0.015,0.118,0.018c0.004,0.002,0.027-0.003,0.014,0.006c-0.064,0.033-0.103,0.041-0.138,0.049
					c-0.074,0.021-0.144,0.05-0.208,0.086c-0.132,0.077-0.239,0.179-0.266,0.185c-0.039,0.018-0.079,0.131-0.067,0.095
					c-0.002-0.016-0.008,0.012-0.006-0.011c0,0,0.003-0.027-0.009-0.067c-0.013-0.035-0.038-0.074-0.109-0.208
					c-0.035-0.057-0.077-0.1-0.134-0.16c-0.05-0.072-0.176-0.202-0.105-0.13c0.051,0.061,0.138,0.075,0.219,0.104
					C369.603,78.068,370,78,370,78z"/>
			</g>
		</g>
	</g>
	<g display="inline">
		<g>
			<g>
				<path fill="#2BABE2" d="M395,72c0,0,0.318,0.125,0.638,0.25c0.08,0.031,0.159,0.063,0.234,0.092l0.055,0.021l0.027,0.011
					l0.001,0l0.001,0h0.001h-1.914l-0.003,0.001l-0.007,0.002l-0.013,0.005c-0.034,0.014-0.067,0.026-0.097,0.038
					c-0.12,0.047-0.199,0.078-0.199,0.078c0-0.045,0.318,0.455,0.638,0C394.682,72.25,395,72,395,72s0.319,0.25,0.638,0.5
					c0.319,0.455,0.638-0.045,0.638,0c0,0-0.079-0.031-0.199-0.078c-0.029-0.012-0.063-0.024-0.097-0.038l-0.013-0.005l-0.007-0.002
					l-0.003-0.001h-1.914h0.001l0.001,0l0.001,0l0.027-0.011l0.055-0.021c0.075-0.029,0.154-0.061,0.234-0.092
					C394.681,72.125,395,72,395,72z"/>
			</g>
		</g>
	</g>
	<g display="inline">
		<g>
			<g>
				<path fill="#2BABE2" d="M424,68c0,0-0.057,0.43-0.155,1.182c-0.104,0.752-0.212,1.835-0.478,3.113
					c-0.437,2.572-1.294,5.977-2.613,9.243c-1.288,3.277-3.065,6.374-4.619,8.545c-1.538,2.187-2.763,3.502-2.763,3.502
					s-0.16,0.155-0.461,0.447c-0.303,0.29-0.73,0.731-1.333,1.229c-1.168,1.036-2.908,2.436-5.139,3.89
					c-2.24,1.437-4.973,2.912-8.021,4.177c-3.045,1.272-6.395,2.341-9.793,3.156c-6.803,1.645-13.76,2.26-18.957,2.455
					c-2.602,0.098-4.771,0.104-6.286,0.095C361.866,109.012,361,109,361,109s0.866-0.028,2.382-0.076
					c1.515-0.061,3.676-0.167,6.263-0.383c5.166-0.431,12.05-1.365,18.655-3.29c3.3-0.954,6.521-2.149,9.412-3.517
					c2.895-1.361,5.448-2.898,7.519-4.364c2.06-1.483,3.641-2.88,4.693-3.905c0.547-0.493,0.929-0.928,1.2-1.212
					c0.269-0.287,0.413-0.439,0.413-0.439s1.255-1.12,2.895-3.047c1.654-1.912,3.62-4.699,5.16-7.754
					c1.567-3.04,2.723-6.305,3.388-8.807c0.38-1.241,0.584-2.304,0.758-3.042C423.904,68.423,424,68,424,68z"/>
			</g>
		</g>
	</g>
	<g display="inline">
		<g>
			<g>
				<path fill="#2BABE2" d="M428,86c0,0,0.173,0.204,0.475,0.562c0.287,0.369,0.771,0.847,1.225,1.517
					c0.979,1.287,2.1,3.181,2.799,5.303c0.717,2.116,0.851,4.458,0.59,6.189c-0.077,0.432-0.147,0.829-0.21,1.18
					c-0.102,0.343-0.19,0.642-0.263,0.888c-0.076,0.248-0.136,0.442-0.177,0.574c-0.042,0.132-0.077,0.197-0.077,0.197
					s-0.071,0.128-0.206,0.37c-0.144,0.235-0.314,0.606-0.606,1.026c-0.581,0.841-1.47,2.015-2.802,3.117
					c-1.326,1.099-3.056,2.138-5.05,2.834c-1.988,0.703-4.23,1.061-6.448,0.968c-2.219-0.083-4.398-0.625-6.263-1.484
					c-1.873-0.852-3.41-2.006-4.604-3.093c-0.573-0.574-1.118-1.074-1.517-1.602c-0.415-0.508-0.796-0.933-1.04-1.333
					C403.3,102.442,403,102,403,102s0.332,0.418,0.914,1.15c0.273,0.381,0.684,0.774,1.128,1.242c0.425,0.485,1.001,0.938,1.6,1.456
					c1.246,0.974,2.813,1.973,4.651,2.648c1.83,0.684,3.909,1.032,5.963,0.955c2.055-0.068,4.072-0.554,5.806-1.316
					c1.74-0.758,3.185-1.789,4.251-2.814c1.07-1.031,1.727-2.067,2.155-2.791c0.216-0.362,0.326-0.677,0.43-0.875
					c0.096-0.203,0.146-0.311,0.146-0.311s0.038-0.048,0.088-0.149c0.048-0.102,0.118-0.25,0.207-0.44
					c0.091-0.191,0.201-0.423,0.327-0.689c0.094-0.28,0.2-0.596,0.316-0.941c0.428-1.392,0.637-3.412,0.276-5.438
					c-0.342-2.021-1.131-4.004-1.896-5.396c-0.345-0.721-0.746-1.255-0.976-1.664C428.141,86.228,428,86,428,86z"/>
			</g>
		</g>
	</g>
	<g display="inline">
		<g>
			<g>
				<path fill="#2BABE2" d="M423,103c0,0-0.906-0.452-1.813-0.904c-0.906-0.435-1.813-0.87-1.813-0.87s-1.133-1.554-2.403-2.968
					c-0.636-0.705-1.319-1.364-1.902-1.761c-0.294-0.206-0.542-0.328-0.746-0.405C414.117,96.033,414,96,414,96
					s0.122-0.006,0.335-0.017c0.205,0.005,0.543,0.045,0.899,0.152c0.733,0.202,1.651,0.633,2.525,1.121
					c1.749,0.979,3.372,2.122,3.372,2.122s0.476,0.905,0.951,1.811C422.542,102.094,423,103,423,103z"/>
			</g>
		</g>
	</g>
</g>
</svg>
